<svg viewBox="0 0 232 128" aria-hidden="true" focusable="false">
          <g stroke="#2B1A3D" stroke-width="4" stroke-linejoin="round" stroke-linecap="round" fill="none">
            <path d="M64 60 L232 24 L232 100 Z" fill="#FFB03A"></path>
            <path d="M66 60 L232 40 L232 84 Z" fill="#FFE9A8" stroke="none"></path>
            <path d="M66 60 L232 40 M66 60 L232 84" stroke="#2B1A3D" stroke-width="3"></path>
            <g transform="translate(52 104) scale(.86)">
              <ellipse cx="0" cy="4" rx="38" ry="9" fill="#E0492F"></ellipse>
              <path d="M-34,4 C-34,-4 -25,-7 -18,-13 C-12,-18 -10,-25 -10,-31 L10,-31 C10,-25 12,-18 18,-13 C25,-7 34,-4 34,4 Z" fill="#E0492F"></path>
              <circle cx="0" cy="-48" r="23" fill="#FF8A5C"></circle>
              <path d="M-24,-64 Q-16,-74 -4,-68" stroke-width="4"></path>
              <path d="M-14,-56 Q-8,-62 -2,-56" stroke-width="4.5"></path>
              <path d="M8,-56 Q14,-62 20,-56" stroke-width="4.5"></path>
              <path d="M6,-40 Q16,-44 22,-38 Q16,-30 6,-34 Z" fill="#FFF3E2"></path>
            </g>
            <g transform="translate(176 44) rotate(24)">
              <ellipse cx="0" cy="4" rx="24" ry="6" fill="#4C86F9"></ellipse>
              <path d="M-22,4 C-22,-2 -16,-5 -12,-9 C-8,-12 -7,-17 -7,-20 L7,-20 C7,-17 8,-12 12,-9 C16,-5 22,-2 22,4 Z" fill="#4C86F9"></path>
              <circle cx="0" cy="-32" r="15" fill="#7FB0FF"></circle>
              <path d="M-9,-38 L-2,-30 M-9,-30 L-2,-38 M3,-38 L10,-30 M3,-30 L10,-38" stroke-width="3.5"></path>
            </g>
            <g transform="translate(196 96) rotate(-18)">
              <ellipse cx="0" cy="4" rx="22" ry="6" fill="#3FA35B"></ellipse>
              <path d="M-20,4 C-20,-2 -15,-4 -11,-8 C-7,-11 -6,-16 -6,-19 L6,-19 C6,-16 7,-11 11,-8 C15,-4 20,-2 20,4 Z" fill="#3FA35B"></path>
              <circle cx="0" cy="-30" r="14" fill="#78D18F"></circle>
              <path d="M-8,-36 L-2,-29 M-8,-29 L-2,-36 M3,-36 L9,-29 M3,-29 L9,-36" stroke-width="3.5"></path>
            </g>
            <g stroke="#2B1A3D" stroke-width="4">
              <path d="M96 18 L104 32 M136 12 L140 28 M112 112 L118 98 M158 116 L160 102"></path>
            </g>
          </g>
        </svg>
