<svg viewBox="0 0 232 128" aria-hidden="true" focusable="false">
          <g stroke="#2B1A3D" stroke-width="4" stroke-linejoin="round" stroke-linecap="round" fill="none">
            <g transform="translate(112 100)">
              <path d="M-70,0 L0,-14 L70,0 L0,16 Z" fill="#8B5FB8"></path>
              <path d="M-70,0 L-70,8 L0,24 L0,16 Z" fill="#6B3FA0"></path>
              <path d="M70,0 L70,8 L0,24 L0,16 Z" fill="#7A4FA8"></path>
              <g fill="#6B3FA0" stroke="none" opacity=".75"><ellipse cx="-34" cy="2" rx="7" ry="3.4"></ellipse><ellipse cx="6" cy="8" rx="7" ry="3.4"></ellipse><ellipse cx="44" cy="0" rx="6" ry="3"></ellipse></g>
            </g>
            <g transform="translate(68 94)">
              <path d="M-26,0 L-26,-44 Q-26,-64 0,-64 Q26,-64 26,-44 L26,0 Z" fill="#E0492F"></path>
              <path d="M-17,-6 L-17,-42 Q-17,-55 0,-55 Q17,-55 17,-42 L17,-6 Z" fill="#FF7A52" stroke-width="3.5"></path>
              <rect x="-40" y="-30" width="17" height="32" rx="8" fill="#C43C25"></rect>
              <rect x="23" y="-30" width="17" height="32" rx="8" fill="#C43C25"></rect>
              <path d="M-26,-8 L26,-8 L26,2 L-26,2 Z" fill="#C43C25"></path>
              <g stroke-width="3.5"><path d="M-32,2 L-32,10" ></path><path d="M32,2 L32,10"></path></g>
            </g>
            <g transform="translate(132 96) scale(.84)">
              <path d="M-30,-4 Q-58,-14 -66,-34" stroke-width="6"></path>
              <path d="M30,-8 Q56,-14 66,-30" stroke-width="6"></path>
              <path d="M-14,4 L-24,22 L-38,26" stroke-width="6"></path>
              <path d="M14,4 L34,18 L50,16" stroke-width="6"></path>
              <path d="M-34,4 C-34,-6 -24,-10 -17,-17 C-11,-23 -9,-30 -9,-36 L9,-36 C9,-30 11,-23 17,-17 C24,-10 34,-6 34,4 Z" fill="#FFC93C"></path>
              <circle cx="1" cy="-56" r="25" fill="#FFE05C"></circle>
              <g fill="#FFF8EC">
                <circle cx="-9" cy="-60" r="7.5"></circle>
                <circle cx="12" cy="-60" r="7.5"></circle>
              </g>
              <g fill="#2B1A3D" stroke="none"><circle cx="-9" cy="-56" r="3.4"></circle><circle cx="12" cy="-56" r="3.4"></circle></g>
              <g stroke-width="4.5"><path d="M-17,-63 Q-9,-68 -1,-63"></path><path d="M4,-63 Q12,-68 20,-63"></path></g>
              <ellipse cx="17" cy="-43" rx="5" ry="6.5" fill="#E8A93C"></ellipse>
              <g fill="#2B1A3D" stroke="none" opacity=".55"><circle cx="-14" cy="-44" r="1.8"></circle><circle cx="-7" cy="-41" r="1.8"></circle><circle cx="-16" cy="-38" r="1.8"></circle></g>
            </g>
            <g transform="translate(190 100) rotate(24)">
              <rect x="-9" y="-17" width="18" height="34" rx="5" fill="#4A4657"></rect>
              <g fill="#B6C1D9" stroke="none"><circle cx="-3" cy="-9" r="2.2"></circle><circle cx="4" cy="-9" r="2.2"></circle><circle cx="-3" cy="-1" r="2.2"></circle><circle cx="4" cy="-1" r="2.2"></circle><circle cx="-3" cy="7" r="2.2"></circle><circle cx="4" cy="7" r="2.2"></circle></g>
            </g>
            <g transform="translate(190 28)">
              <path d="M-34,4 A15,15 0 0 1 -22,-16 A18,18 0 0 1 4,-24 A16,16 0 0 1 30,-12 A13,13 0 0 1 28,10 A20,20 0 0 1 -18,14 A14,14 0 0 1 -34,4 Z" fill="#FFF8EC"></path>
              <g stroke-width="3.5"><path d="M-16,-2 Q-2,-16 12,-6"></path><path d="M6,-10 L14,-8 L10,0" fill="#2B1A3D"></path></g>
              <path d="M-40,20 a5,5 0 1 0 .1,0" fill="#FFF8EC" stroke-width="3"></path>
            </g>
            <g transform="translate(22 74)">
              <g transform="scale(.38)">
                <path d="M-34,4 C-34,-4 -25,-7 -18,-13 C-12,-18 -10,-25 -10,-31 L10,-31 C10,-25 12,-18 18,-13 C25,-7 34,-4 34,4 Z" fill="#FFC93C" stroke-width="9"></path>
                <circle cx="0" cy="-48" r="23" fill="#FFE05C" stroke-width="9"></circle>
              </g>
              <g stroke="#B98CE0" stroke-width="3.5" fill="none"><path d="M-16,-14 Q-26,4 -14,20"></path><path d="M-24,-20 Q-38,4 -22,28"></path></g>
            </g>
          </g>
        </svg>
