<svg viewBox="0 0 232 128" aria-hidden="true" focusable="false">
          <g stroke="#35204A" stroke-width="5" stroke-linejoin="round" stroke-linecap="round" fill="none">
            <g transform="translate(56 4)"><path d="M60,14 L96,46 L90,80 L60,106 L30,80 L24,46 Z" fill="#EFD9BC"></path><path d="M60,14 L24,46 L38,64 L60,52 Z" fill="#FFF8EC"></path><path d="M60,14 L60,52 L82,64 L96,46 Z" fill="#FFF3E2"></path><path d="M60,52 L38,64 L60,106 L82,64 Z" fill="#EFD9BC"></path><g stroke-width="3.5"><path d="M24,46 L38,64 L60,52 L82,64 L96,46"></path><path d="M60,14 L60,52"></path><path d="M38,64 L60,106 L82,64"></path></g><text x="60" y="84" text-anchor="middle" font-family="Baloo 2, cursive" font-size="18" font-weight="800" fill="#35204A" stroke="none">10</text></g>
          </g>
        </svg>
