<svg viewBox="0 0 232 128" aria-hidden="true" focusable="false">
  <g stroke="#2B1A3D" stroke-width="4" stroke-linejoin="round" stroke-linecap="round" fill="none">
    <g transform="translate(56 112) scale(0.9)">
  <ellipse cx="0" cy="4" rx="38" ry="9" fill="#4C86F9"></ellipse>
  <path d="M-34,4 C-34,-4 -25,-7 -18,-13 C-12,-18 -10,-25 -10,-31 L10,-31 C10,-25 12,-18 18,-13 C25,-7 34,-4 34,4 Z" fill="#4C86F9"></path>
  <circle cx="0" cy="-48" r="23" fill="#7FB0FF"></circle>
  <path d="M-14,-54 Q-9,-60 -4,-54" stroke-width="4"></path>
  <path d="M5,-54 Q10,-60 15,-54" stroke-width="4"></path>
  <path d="M-8,-38 Q1,-31 11,-39" stroke-width="4"></path>
</g>
    <g transform="translate(176 112) scale(0.9)" opacity=".5">
  <ellipse cx="0" cy="4" rx="38" ry="9" fill="#AFCBFF"></ellipse>
  <path d="M-34,4 C-34,-4 -25,-7 -18,-13 C-12,-18 -10,-25 -10,-31 L10,-31 C10,-25 12,-18 18,-13 C25,-7 34,-4 34,4 Z" fill="#AFCBFF"></path>
  <circle cx="0" cy="-48" r="23" fill="#DCE9FF"></circle>
  <path d="M-14,-54 Q-9,-60 -4,-54" stroke-width="4"></path>
  <path d="M5,-54 Q10,-60 15,-54" stroke-width="4"></path>
  <path d="M-8,-38 Q1,-31 11,-39" stroke-width="4"></path>
</g>
    <g stroke="#7FA6E8" stroke-width="4" stroke-dasharray="9 9"><path d="M84 46 Q116 14 148 46"></path></g>
    <g fill="#FFFFFF" stroke-width="3.5"><circle cx="116" cy="20" r="6"></circle><circle cx="30" cy="30" r="4"></circle><circle cx="206" cy="36" r="4"></circle></g>
  </g>
</svg>
